<?xml version="1.0" standalone="no"?>
<!DOCTYPE svg PUBLIC "-//W3C//DTD SVG 20010904//EN"
 "http://www.w3.org/TR/2001/REC-SVG-20010904/DTD/svg10.dtd">
<svg version="1.0" xmlns="http://www.w3.org/2000/svg"
 width="700.000000pt" height="700.000000pt" viewBox="0 0 700.000000 700.000000"
 preserveAspectRatio="xMidYMid meet">
<metadata>
Created by potrace 1.14, written by Peter Selinger 2001-2017
</metadata>
<g transform="translate(0.000000,700.000000) scale(0.100000,-0.100000)"
fill="#000000" stroke="none">
<path d="M1894 6980 c-57 -29 -80 -76 -99 -201 -9 -57 -17 -111 -20 -119 -2
-8 -6 -37 -10 -65 -3 -27 -8 -57 -10 -65 -2 -8 -6 -37 -10 -65 -3 -27 -8 -59
-10 -70 -3 -11 -7 -36 -9 -55 -5 -32 -32 -203 -41 -260 -2 -14 -7 -43 -10 -65
-3 -22 -10 -65 -15 -95 -5 -30 -12 -73 -15 -95 -5 -34 -46 -299 -61 -390 -2
-16 -6 -41 -9 -55 -2 -14 -7 -43 -10 -65 -5 -35 -14 -93 -31 -200 -2 -16 -6
-41 -9 -55 -2 -14 -7 -45 -10 -70 -3 -25 -8 -52 -10 -60 -2 -8 -6 -37 -10 -65
-3 -27 -14 -102 -25 -165 -11 -63 -21 -131 -24 -150 -4 -30 -16 -106 -31 -200
-2 -14 -6 -38 -9 -55 -15 -102 -19 -122 -22 -140 -2 -11 -7 -40 -10 -65 -3
-25 -8 -54 -10 -65 -2 -11 -13 -81 -24 -155 -12 -74 -23 -146 -25 -160 -8 -50
-36 -226 -41 -260 -3 -19 -7 -46 -9 -60 -2 -14 -14 -86 -25 -160 -26 -166 -29
-189 -35 -220 -3 -14 -7 -47 -11 -75 -3 -27 -8 -59 -10 -70 -5 -21 -7 -35 -30
-185 -8 -52 -17 -106 -19 -120 -2 -14 -7 -43 -10 -65 -4 -22 -13 -83 -21 -135
-9 -52 -17 -111 -20 -130 -2 -19 -11 -73 -19 -120 -8 -47 -17 -105 -21 -130
-7 -54 -6 -46 -38 -250 -14 -91 -33 -205 -41 -255 -8 -49 -15 -97 -15 -106 0
-13 172 -116 380 -227 25 -13 50 -27 55 -32 6 -4 35 -21 65 -37 30 -16 174
-96 320 -178 146 -81 285 -159 310 -173 25 -14 140 -77 255 -142 116 -65 230
-129 255 -142 25 -14 63 -35 85 -48 39 -22 159 -89 260 -145 28 -15 100 -56
160 -90 229 -129 273 -146 397 -146 82 0 162 21 243 65 181 100 298 165 315
176 8 5 42 23 75 41 33 18 77 43 97 55 21 13 39 24 41 24 2 0 73 39 158 86
210 118 194 110 549 307 1067 593 1065 592 1064 618 -1 24 -10 94 -19 139 -2
13 -7 42 -10 65 -3 22 -13 81 -21 130 -8 50 -17 101 -19 115 -2 14 -15 93 -29
175 -13 83 -27 170 -31 195 -3 25 -8 52 -10 60 -2 8 -7 35 -10 60 -4 25 -22
137 -40 250 -18 113 -36 221 -39 240 -3 19 -12 73 -20 120 -8 47 -18 108 -22
135 -4 28 -8 52 -9 55 -1 5 -11 68 -22 139 -2 18 -7 43 -9 55 -3 18 -33 198
-50 305 -3 18 -8 43 -10 55 -2 11 -7 46 -10 76 -3 30 -8 58 -10 61 -2 4 -8 38
-14 75 -18 131 -21 149 -26 163 -2 8 -7 30 -10 50 -7 57 -25 173 -31 206 -3
17 -7 39 -8 50 -2 11 -8 52 -15 90 -13 80 -18 114 -35 218 -9 52 -13 75 -35
217 -12 74 -28 171 -35 215 -19 103 -21 120 -40 245 -26 179 -72 235 -188 227
l-58 -3 -431 -432 -432 -431 -16 27 c-9 15 -50 92 -92 172 -154 297 -202 387
-248 475 -26 50 -76 144 -110 210 -95 182 -161 306 -183 346 -53 94 -183 115
-259 42 -16 -15 -70 -106 -120 -203 -50 -96 -103 -197 -118 -225 -15 -27 -54
-101 -86 -162 -51 -100 -74 -132 -74 -105 0 5 -25 55 -56 113 -31 57 -79 147
-106 199 -28 52 -66 124 -86 160 -19 36 -56 106 -82 155 -26 50 -65 124 -87
165 -39 71 -184 345 -371 695 -111 209 -123 223 -210 231 -35 4 -58 -1 -88
-16z"/>
</g>
</svg>
